<?xml version="1.0" encoding="UTF-8"?>
<!-- Generator: Adobe Illustrator 25.2.3, SVG Export Plug-In . SVG Version: 6.00 Build 0)  -->
<svg xmlns="http://www.w3.org/2000/svg" xmlns:xlink="http://www.w3.org/1999/xlink" version="1.1" id="Capa_1" x="0px" y="0px" viewBox="0 0 512 512" style="enable-background:new 0 0 512 512;" xml:space="preserve" width="512" height="512">
<g>
	<g>
		<path style="fill:#FF4E10;" d="M132.714,340.598c0,0-30.074,45.731-60.726,47.208c-30.657,1.472-27.002-57.997-27.002-57.997    l11.834-22.83c0,0-19.179-13.155-18.502,20.665l-36.326-8.668c0,0-14.416,56.747,34.331,32.5c0,0-7.897,49.995,32.345,48.496    c40.248-1.502,64.311-59.997,64.311-59.997"/>
		
			<rect x="10.189" y="342.088" transform="matrix(0.5849 -0.8111 0.8111 0.5849 -266.7032 165.0397)" style="fill:#FFC217;" width="35.405" height="2"/>
		
			<rect x="11.277" y="333.884" transform="matrix(0.2305 -0.9731 0.9731 0.2305 -327.0848 278.0733)" style="fill:#FFC217;" width="1.999" height="23.923"/>
		<polygon style="fill:#FFC217;" points="31.21,339.102 1.001,331.416 1.498,329.48 31.707,337.166   "/>
	</g>
	<g>
		<g>
			<path style="fill:#FF4E10;" d="M108.482,328.724c0,0,40.707-2.129,67.848,49.055c0,0,59.391-20.496,117.514,10.095     c0,0,50.966-50.422,86.616-39.272c0,0,8.495-66.803,51.494-77.711c0,0-47.498-44.226-34.499-91.064     c0,0-91.363-30.837-90.177-67.832c0,0-92.499,32.996-127.902,7.497c0,0-42.896,58.996-73.394,52.497     c0,0,11.246,37.246-26.997,88.216C78.986,260.206,116.34,281.987,108.482,328.724z"/>
			<path style="fill:#FFC217;" d="M115.298,234.345c-9.962,60.663,44.308,118.818,121.214,129.889     c76.901,11.068,147.307-29.13,157.263-89.796c9.957-60.665-44.318-118.816-121.213-129.89     C195.661,133.475,125.25,173.678,115.298,234.345z"/>
		</g>
		<path style="fill:#FF4E10;" d="M154.034,233.009c16.262,5.983,41.107,1.074,45.801-18.697    c-1.269,23.255-29.066,33.002-48.208,30.051L154.034,233.009z"/>
		<path style="fill:#FF4E10;" d="M220.38,181.938c24.46-13.657,55.371-2.317,73.464,16.708    c-18.323-13.947-46.856-22.074-66.972-7.088L220.38,181.938z"/>
		<g>
			<path style="fill:#FFFFFF;" d="M210.567,263.782c0,9.375-13.963,16.975-31.191,16.975c-17.228,0-31.189-7.6-31.189-16.975     c0,0,0.01-0.594,0.054-0.832c2.697-2.478,15.872-13.014,31.136-13.014c12.694,0,25.605,6.25,30.474,10.207     C210.567,262.214,210.567,263.782,210.567,263.782z"/>
			<path style="fill:#050C2D;" d="M205.347,261.172c0,5.366-5.004,9.72-11.173,9.72s-11.173-4.354-11.173-9.72     c0-5.367,5.004-9.717,11.173-9.717S205.347,255.805,205.347,261.172z"/>
			<path style="fill:#FF4E10;" d="M209.851,260.142l-61.61,2.808c0.79-8.982,14.418-16.131,31.131-16.131     C194.297,246.819,206.784,252.506,209.851,260.142z"/>
		</g>
		<g>
			<path style="fill:#FFFFFF;" d="M307.125,260.206c0,13.222-19.692,23.94-43.987,23.94c-24.29,0-43.982-10.718-43.982-23.94     c0,0,19.326-20.819,43.616-20.819c21.447,0,43.552,16.406,43.552,16.406C306.85,257.185,307.125,258.657,307.125,260.206z"/>
			<path style="fill:#050C2D;" d="M294.891,257.84c0,5.872-5.472,10.633-12.219,10.633c-6.751,0-12.218-4.761-12.218-10.633     c0-5.87,5.467-10.631,12.218-10.631C289.418,247.209,294.891,251.97,294.891,257.84z"/>
			<path style="fill:#FF4E10;" d="M306.364,255.778l-87.183,3.946c0.464-12.999,19.959-23.443,43.963-23.443     C284.638,236.281,302.556,244.658,306.364,255.778z"/>
		</g>
		<g>
			<path style="fill:#FFFFFF;" d="M312.241,337.479l-15.834-34.401c7.144-1.592,7.063-11.014,7.285-16.844     c5.719,3.98,9.083,9.052,11.858,15.321C318.801,311.536,324.12,331.572,312.241,337.479z"/>
			<path style="fill:#050C2D;" d="M288.091,303.161c0,0,18.199,4.021,14.263-19.233c0,0,12.717,6.175,16.729,28.341     c4.01,22.166-3.526,29.034-14.941,25.342c0,0,19.109,4.761,13.776-25.587c-2.608-14.815-8.545-21.225-13.943-23.903     C303.974,288.121,306.977,309.717,288.091,303.161z"/>
			<path style="fill:#050C2D;" d="M300.64,287.704c0,0,4.52-4.791,11-2.277c0,0-8.895-5.53-12.313-0.517L300.64,287.704z"/>
			
				<rect x="306.95" y="300.206" transform="matrix(0.8914 -0.4533 0.4533 0.8914 -111.0975 173.904)" style="fill:#050C2D;" width="0.656" height="37.071"/>
			
				<rect x="310.132" y="296.056" transform="matrix(0.8157 -0.5784 0.5784 0.8157 -123.3503 237.1008)" style="fill:#050C2D;" width="0.654" height="32.189"/>
			
				<rect x="310.349" y="291.03" transform="matrix(0.742 -0.6704 0.6704 0.742 -122.4884 286.2621)" style="fill:#050C2D;" width="0.654" height="22.484"/>
			<path style="fill:#050C2D;" d="M300.976,312.543c-0.123,0-0.247-0.002-0.373-0.007l0.023-0.655     c2.314,0.086,4.231-0.673,5.705-2.253c4.783-5.123,3.562-17.255,3.549-17.377l0.652-0.07c0.053,0.511,1.263,12.555-3.722,17.894     C305.281,311.714,303.32,312.543,300.976,312.543z"/>
		</g>
	</g>
	<path style="fill:#FF4E10;" d="M392.743,336.702c0,0,39.34,7.996,37.68,11.999c-1.679,3.999-34.997-8.661-34.997-8.661   s31.318,15.84,28.997,19.579c-2.341,3.739-31.679-16.919-31.679-16.919s27.002,21.658,23.337,24.337   c-3.3,2.4-20.477-17.539-23.915-21.558c2.84,3.541,15.198,19.259,12.259,21.742c-3.339,2.819-20.62-32.899-20.62-32.899   s116.271-33.62,113.268-50.957c-2.396-13.799-59.388-2.439-82.449,2.761c23.782-8.781,81.832-27.619,95.789-8.26   C528.067,302.364,392.743,336.702,392.743,336.702z"/>
</g>















</svg>
